<svg width="20" height="20" viewBox="0 0 20 20" fill="none" xmlns="http://www.w3.org/2000/svg">
<path d="M16.3877 4.95915C16.7596 4.58722 16.7596 3.98421 16.3877 3.61228C16.0158 3.24035 15.4128 3.24035 15.0408 3.61228L10 8.65313L4.95915 3.61228C4.58722 3.24035 3.98421 3.24035 3.61228 3.61228C3.24035 3.98421 3.24035 4.58722 3.61228 4.95915L8.65313 10L3.61228 15.0408C3.24035 15.4128 3.24035 16.0158 3.61228 16.3877C3.98421 16.7596 4.58722 16.7596 4.95915 16.3877L10 11.3469L15.0408 16.3877C15.4128 16.7596 16.0158 16.7596 16.3877 16.3877C16.7596 16.0158 16.7596 15.4128 16.3877 15.0408L11.3469 10L16.3877 4.95915Z" fill="#2E3238"/>
</svg>
