<svg width="16" height="14" viewBox="0 0 16 14" fill="none" xmlns="http://www.w3.org/2000/svg">
<path fill-rule="evenodd" clip-rule="evenodd" d="M0.728597 0.719415C0.837836 0.483972 1.07379 0.333333 1.33334 0.333333H14.6667C14.9262 0.333333 15.1622 0.483972 15.2714 0.719415C15.3807 0.954858 15.3433 1.2323 15.1757 1.43048L10 7.55077V13C10 13.2311 9.88037 13.4456 9.68383 13.5671C9.48729 13.6886 9.24186 13.6996 9.0352 13.5963L6.36853 12.263C6.14268 12.15 6.00001 11.9192 6.00001 11.6667V7.55077L0.824296 1.43048C0.656697 1.2323 0.619358 0.954858 0.728597 0.719415ZM2.77021 1.66667L7.17572 6.87618C7.2775 6.99653 7.33334 7.14905 7.33334 7.30667V11.2546L8.66668 11.9213V7.30667C8.66668 7.14905 8.72252 6.99653 8.8243 6.87618L13.2298 1.66667H2.77021Z" fill="#ABB1BA"/>
</svg>
